<svg width="188" height="29" viewBox="0 0 188 29" fill="none" xmlns="http://www.w3.org/2000/svg">
<path d="M0.000156423 15.203C0.000156581 18.8259 0.511496 22.474 1.55725 26.097C5.18185 27.1492 8.9532 27.6638 12.408 27.6638C12.408 20.4912 6.86077 15.203 0.000156423 15.203Z" fill="#171717"/>
<path d="M26.7946 15.203C26.7946 18.8259 26.2833 22.474 25.2375 26.097C21.6129 27.1492 17.8416 27.6638 14.3868 27.6638C14.3868 20.4912 19.934 15.203 26.7946 15.203Z" fill="#171717"/>
<path d="M14.3096 0.946792C17.9325 0.946792 21.5806 1.45813 25.2036 2.50388C26.2558 6.12848 26.7704 9.89984 26.7704 13.3546C19.5978 13.3546 14.3096 7.80741 14.3096 0.946792Z" fill="#171717"/>
<path d="M12.4608 0.946792C8.83781 0.946792 5.18975 1.45813 1.56677 2.50388C0.514517 6.12848 0 9.89984 0 13.3546C7.1726 13.3546 12.4608 7.80741 12.4608 0.946792Z" fill="#171717"/>
<path d="M148.981 8.00915C143.493 8.00915 139.77 11.9711 139.77 17.8378C139.77 23.7045 143.641 27.7395 149.357 27.7395C153.644 27.7395 156.915 25.1241 157.78 21.163H154.209C153.569 23.2924 151.69 24.6006 149.132 24.6006C146.574 24.6006 144.462 23.064 143.729 20.5731C143.421 19.5262 143.913 18.6946 145.174 18.6946H158.044L158.08 18.5092C158.118 18.0232 158.157 17.5756 158.157 17.1252C158.044 11.5582 154.47 8.00915 148.981 8.00915ZM147.451 15.7056C145.886 15.7056 144.523 16.5727 143.825 17.85H143.33C143.34 13.372 145.324 11.0722 148.981 11.0722C152.028 11.0722 154.058 12.7924 154.395 15.7056H147.451Z" fill="#171717"/>
<path d="M116.533 24.2644C115.854 24.2644 115.516 24.1521 115.516 23.254V14.9958C115.516 10.5862 112.698 8.00915 107.696 8.00915C103.033 8.00915 99.9512 10.2893 99.4622 14.1006V14.286H102.921V14.1361C102.921 12.3307 105.064 11.1462 107.547 11.1462C110.404 11.1462 112.057 12.4731 112.057 14.4555C112.057 15.4874 111.151 15.9294 109.692 15.9294H106.682C101.679 15.9294 98.8611 18.0616 98.8611 22.0227C98.8611 25.4603 101.718 27.7395 106.081 27.7395C108.863 27.7395 111.284 26.73 112.375 24.5622H112.865V24.9649C112.865 26.3705 114.009 27.5157 115.423 27.5157H116.635V24.2644H116.533ZM112.057 19.5936C112.057 22.7325 109.877 24.6737 106.306 24.6737C103.937 24.6737 102.394 23.5162 102.394 21.796C102.394 19.8548 103.748 18.8838 106.418 18.8838H107.936C109.501 18.8838 110.863 18.0176 111.561 16.7403H112.057V19.5936Z" fill="#171717"/>
<path d="M187.898 24.2644C187.22 24.2644 186.881 24.1521 186.881 23.254V14.9958C186.881 10.5862 184.063 8.00915 179.061 8.00915C174.399 8.00915 171.317 10.2893 170.828 14.1006V14.286H174.287V14.1361C174.287 12.3307 176.429 11.1462 178.912 11.1462C181.769 11.1462 183.423 12.4731 183.423 14.4555C183.423 15.4874 182.516 15.9294 181.057 15.9294H178.047C173.045 15.9294 170.226 18.0616 170.226 22.0227C170.226 25.4603 173.083 27.7395 177.446 27.7395C180.228 27.7395 182.649 26.73 183.74 24.5622H184.23V24.9649C184.23 26.3705 185.374 27.5157 186.788 27.5157H188V24.2644H187.898ZM183.423 19.5936C183.423 22.7325 181.242 24.6737 177.671 24.6737C175.302 24.6737 173.759 23.5162 173.759 21.796C173.759 19.8548 175.113 18.8838 177.783 18.8838H179.301C180.866 18.8838 182.229 18.0176 182.926 16.7403H183.423V19.5936Z" fill="#171717"/>
<path d="M169.323 8.23309C165.864 8.23309 164.477 9.83812 163.689 10.9983H163.458L163.117 8.23309H160.372V27.4774H163.834V17.6488C163.834 15.407 164.471 11.6314 168.647 11.6314H170.375V8.23216H169.322L169.323 8.23309Z" fill="#171717"/>
<path d="M96.9445 1.2091H93.5213V27.4785H96.9445V1.2091Z" fill="#171717"/>
<path d="M90.0231 1.2091H86.5641V27.4785H90.0231V1.2091Z" fill="#171717"/>
<path d="M74.9842 8.00915C69.3826 8.00915 65.3969 12.0442 65.3969 17.8378C65.3969 23.6314 69.3826 27.7404 74.9842 27.7404C80.5858 27.7404 84.6101 23.667 84.6101 17.8378C84.6101 12.0086 80.6621 8.00915 74.9842 8.00915ZM74.9842 24.5622C71.4517 24.5622 68.9322 21.8344 68.9322 17.8378C68.9322 13.8412 71.4508 11.1106 74.9842 11.1106C78.5176 11.1106 81.039 13.8384 81.039 17.8378C81.039 21.8372 78.5939 24.5622 74.9842 24.5622Z" fill="#171717"/>
<path d="M60.0955 18.7715C59.1175 22.2821 56.3737 24.3001 52.5388 24.3001C47.3112 24.3001 43.9267 20.3775 43.9267 14.3245C43.8522 8.34542 47.3885 4.38437 52.6518 4.38437C56.3737 4.38437 59.0798 6.36677 60.0965 9.9158L60.1351 10.0282H63.9314L63.8927 9.80436C62.878 4.38437 58.6285 0.946777 52.763 0.946777C45.2411 0.946777 40.1671 6.36583 40.1671 14.3245C40.1671 22.2831 45.0545 27.6637 52.5378 27.6637C58.5154 27.6637 62.8779 24.2645 63.856 18.8455L63.9304 18.5833H60.0955V18.7715Z" fill="#171717"/>
<path d="M128.83 8.00937C126.46 8.00937 124.017 9.27915 122.85 10.887H122.55V1.2091H119.091V27.5084H121.984L122.401 24.8359H122.712C124.055 26.5945 126.229 27.7023 129.206 27.7023C134.508 27.7023 138.118 23.6288 138.118 17.838C138.118 12.0472 134.508 8.00937 128.833 8.00937H128.83ZM128.528 24.5615C124.957 24.5615 122.473 21.8347 122.473 17.7612C122.473 13.6878 124.957 11.1464 128.528 11.1464C132.099 11.1464 134.618 13.8386 134.618 17.838C134.618 21.8375 132.176 24.5624 128.528 24.5624V24.5615Z" fill="#171717"/>
</svg>
