<?xml version="1.0" encoding="UTF-8"?>
<!DOCTYPE svg PUBLIC "-//W3C//DTD SVG 1.1//EN" "http://www.w3.org/Graphics/SVG/1.1/DTD/svg11.dtd">
<svg xmlns="http://www.w3.org/2000/svg" version="1.1" width="681px" height="349px" style="shape-rendering:geometricPrecision; text-rendering:geometricPrecision; image-rendering:optimizeQuality; fill-rule:evenodd; clip-rule:evenodd" xmlns:xlink="http://www.w3.org/1999/xlink">
<g><path style="opacity:1" fill="#fcfcfd" d="M -0.5,-0.5 C 226.5,-0.5 453.5,-0.5 680.5,-0.5C 680.5,115.833 680.5,232.167 680.5,348.5C 453.5,348.5 226.5,348.5 -0.5,348.5C -0.5,232.167 -0.5,115.833 -0.5,-0.5 Z"/></g>
<g><path style="opacity:1" fill="#0c4a8b" d="M 95.5,9.5 C 258.167,9.33333 420.834,9.5 583.5,10C 626.232,17.7307 654.399,42.2307 668,83.5C 669.319,88.7745 670.319,94.1079 671,99.5C 671.667,132.833 671.667,166.167 671,199.5C 663.65,244.518 638.15,273.684 594.5,287C 590.152,287.573 585.819,288.24 581.5,289C 419.833,289.667 258.167,289.667 96.5,289C 51.7421,280.577 23.2421,254.41 11,210.5C 10.0881,206.205 9.42148,201.872 9,197.5C 8.33333,165.5 8.33333,133.5 9,101.5C 17.0812,51.2539 45.9146,20.5872 95.5,9.5 Z"/></g>
<g><path style="opacity:1" fill="#e5eaf0" d="M 65.5,65.5 C 78.1711,65.3334 90.8377,65.5001 103.5,66C 105.09,67.0458 106.59,68.2125 108,69.5C 109.214,67.9512 110.714,66.7845 112.5,66C 154.199,65.0339 195.866,65.3672 237.5,67C 255.93,72.4303 268.097,84.2636 274,102.5C 280.798,81.699 294.964,69.5323 316.5,66C 342.167,65.3333 367.833,65.3333 393.5,66C 395.286,66.7845 396.786,67.9512 398,69.5C 398.667,79.8333 398.667,90.1667 398,100.5C 397.535,101.931 396.701,103.097 395.5,104C 377.59,105.307 359.59,105.974 341.5,106C 327.869,111.072 320.369,120.906 319,135.5C 318.333,147.833 318.333,160.167 319,172.5C 319.894,181.808 324.394,188.641 332.5,193C 426.833,193.333 521.167,193.667 615.5,194C 617.286,194.785 618.786,195.951 620,197.5C 620.667,208.167 620.667,218.833 620,229.5C 618.833,230.667 617.667,231.833 616.5,233C 516.167,233.667 415.833,233.667 315.5,233C 294.776,228.571 280.943,216.404 274,196.5C 268.088,214.745 255.921,226.579 237.5,232C 195.866,233.633 154.199,233.966 112.5,233C 110.714,232.215 109.214,231.049 108,229.5C 106.59,230.787 105.09,231.954 103.5,233C 90.8333,233.667 78.1667,233.667 65.5,233C 63,231.833 61.1667,230 60,227.5C 59.3333,175.167 59.3333,122.833 60,70.5C 61.7297,68.5981 63.563,66.9314 65.5,65.5 Z"/></g>
<g><path style="opacity:1" fill="#182858" d="M 66.5,68.5 C 78.5046,68.3335 90.5046,68.5001 102.5,69C 104.333,69.5 105.5,70.6667 106,72.5C 106.667,123.833 106.667,175.167 106,226.5C 105.348,228.723 103.848,229.89 101.5,230C 89.8333,230.667 78.1667,230.667 66.5,230C 65.0692,229.535 63.9025,228.701 63,227.5C 62.3333,175.5 62.3333,123.5 63,71.5C 64.1451,70.3636 65.3117,69.3636 66.5,68.5 Z"/></g>
<g><path style="opacity:1" fill="#182858" d="M 113.5,68.5 C 153.168,68.3333 192.835,68.5 232.5,69C 253.891,73.3912 267.058,86.2245 272,107.5C 272.667,135.5 272.667,163.5 272,191.5C 267.04,212.794 253.874,225.627 232.5,230C 192.833,230.667 153.167,230.667 113.5,230C 112.584,229.626 111.75,229.126 111,228.5C 109.343,176.583 109.009,124.583 110,72.5C 110.69,70.6498 111.856,69.3164 113.5,68.5 Z"/></g>
<g><path style="opacity:1" fill="#1a2959" d="M 315.5,68.5 C 341.169,68.3334 366.835,68.5 392.5,69C 393.416,69.3742 394.25,69.8742 395,70.5C 395.667,80.1667 395.667,89.8333 395,99.5C 394.692,100.308 394.192,100.975 393.5,101.5C 376.211,102.32 358.877,102.82 341.5,103C 325.983,108.198 317.483,119.031 316,135.5C 315.333,147.5 315.333,159.5 316,171.5C 316.416,183.185 321.916,191.352 332.5,196C 426.833,196.333 521.167,196.667 615.5,197C 616,197.5 616.5,198 617,198.5C 617.667,208.5 617.667,218.5 617,228.5C 616.5,229 616,229.5 615.5,230C 515.167,230.667 414.833,230.667 314.5,230C 293.662,225.162 280.828,212.328 276,191.5C 275.333,163.5 275.333,135.5 276,107.5C 281.117,86.2154 294.284,73.2154 315.5,68.5 Z"/></g>
<g><path style="opacity:1" fill="#c3c7d4" d="M 151.5,105.5 C 151.5,135.5 151.5,165.5 151.5,195.5C 168.167,195.5 184.833,195.5 201.5,195.5C 184.675,196.497 167.675,196.83 150.5,196.5C 150.169,165.995 150.502,135.662 151.5,105.5 Z"/></g>
<g><path style="opacity:1" fill="#ebeef3" d="M 151.5,105.5 C 169.17,105.333 186.836,105.5 204.5,106C 219.897,110.063 229.064,119.896 232,135.5C 232.912,147.225 232.579,158.892 231,170.5C 226.172,184.834 216.339,193.168 201.5,195.5C 184.833,195.5 168.167,195.5 151.5,195.5C 151.5,165.5 151.5,135.5 151.5,105.5 Z"/></g>
<g><path style="opacity:1" fill="#0d4a8b" d="M 153.5,108.5 C 170.503,108.333 187.503,108.5 204.5,109C 223.473,115.913 231.807,129.58 229.5,150C 231.746,166.294 226.412,179.294 213.5,189C 209.637,190.732 205.637,192.066 201.5,193C 185.503,193.5 169.503,193.667 153.5,193.5C 153.5,165.167 153.5,136.833 153.5,108.5 Z"/></g>
<g><path style="opacity:1" fill="#878fa8" d="M 412.5,204.5 C 407.5,204.5 402.5,204.5 397.5,204.5C 397.5,205.5 397.5,206.5 397.5,207.5C 396.566,206.432 396.232,205.099 396.5,203.5C 402.026,203.179 407.36,203.512 412.5,204.5 Z"/></g>
<g><path style="opacity:1" fill="#fbfbfc" d="M 412.5,204.5 C 412.5,205.5 412.5,206.5 412.5,207.5C 410.5,207.5 408.5,207.5 406.5,207.5C 406.5,212.833 406.5,218.167 406.5,223.5C 405.167,223.5 403.833,223.5 402.5,223.5C 402.5,218.167 402.5,212.833 402.5,207.5C 400.833,207.5 399.167,207.5 397.5,207.5C 397.5,206.5 397.5,205.5 397.5,204.5C 402.5,204.5 407.5,204.5 412.5,204.5 Z"/></g>
<g><path style="opacity:1" fill="#f5f6f8" d="M 418.5,219.5 C 421.689,220.166 425.023,220.833 428.5,221.5C 423.88,222.493 419.214,222.827 414.5,222.5C 414.5,216.167 414.5,209.833 414.5,203.5C 419.167,203.5 423.833,203.5 428.5,203.5C 428.5,204.833 428.5,206.167 428.5,207.5C 425.167,207.5 421.833,207.5 418.5,207.5C 418.5,208.833 418.5,210.167 418.5,211.5C 421.5,211.5 424.5,211.5 427.5,211.5C 427.5,212.5 427.5,213.5 427.5,214.5C 424.5,214.5 421.5,214.5 418.5,214.5C 418.5,216.167 418.5,217.833 418.5,219.5 Z"/></g>
<g><path style="opacity:1" fill="#eceef1" d="M 436.5,203.5 C 438.857,203.337 441.19,203.503 443.5,204C 447.866,205.698 448.366,207.865 445,210.5C 443.171,207.796 440.671,206.963 437.5,208C 435.077,211.379 434.91,214.879 437,218.5C 437.893,219.081 438.893,219.415 440,219.5C 442.185,217.892 444.685,216.892 447.5,216.5C 446.442,222.706 442.776,224.872 436.5,223C 434.185,221.891 432.685,220.057 432,217.5C 431.333,214.5 431.333,211.5 432,208.5C 433.707,206.963 435.207,205.296 436.5,203.5 Z"/></g>
<g><path style="opacity:1" fill="#878fa8" d="M 455.5,204.5 C 454.167,204.5 452.833,204.5 451.5,204.5C 451.5,210.833 451.5,217.167 451.5,223.5C 450.509,217.021 450.176,210.354 450.5,203.5C 452.415,203.216 454.081,203.549 455.5,204.5 Z"/></g>
<g><path style="opacity:1" fill="#f7f7f9" d="M 455.5,204.5 C 455.5,206.833 455.5,209.167 455.5,211.5C 457.833,211.5 460.167,211.5 462.5,211.5C 462.5,209.167 462.5,206.833 462.5,204.5C 463.833,204.5 465.167,204.5 466.5,204.5C 466.5,210.833 466.5,217.167 466.5,223.5C 465.167,223.5 463.833,223.5 462.5,223.5C 462.5,220.5 462.5,217.5 462.5,214.5C 459.941,214.198 457.607,214.532 455.5,215.5C 455.5,218.167 455.5,220.833 455.5,223.5C 454.167,223.5 452.833,223.5 451.5,223.5C 451.5,217.167 451.5,210.833 451.5,204.5C 452.833,204.5 454.167,204.5 455.5,204.5 Z"/></g>
<g><path style="opacity:1" fill="#878fa8" d="M 474.5,204.5 C 473.167,204.5 471.833,204.5 470.5,204.5C 470.5,210.833 470.5,217.167 470.5,223.5C 469.509,217.021 469.176,210.354 469.5,203.5C 471.415,203.216 473.081,203.549 474.5,204.5 Z"/></g>
<g><path style="opacity:1" fill="#f9f9fb" d="M 474.5,204.5 C 476.655,208.139 478.822,211.806 481,215.5C 481.499,211.848 481.665,208.182 481.5,204.5C 482.5,204.5 483.5,204.5 484.5,204.5C 484.5,210.5 484.5,216.5 484.5,222.5C 483.5,222.5 482.5,222.5 481.5,222.5C 479.265,219.709 477.265,216.709 475.5,213.5C 475.217,212.711 474.717,212.044 474,211.5C 473.501,215.486 473.334,219.486 473.5,223.5C 472.5,223.5 471.5,223.5 470.5,223.5C 470.5,217.167 470.5,210.833 470.5,204.5C 471.833,204.5 473.167,204.5 474.5,204.5 Z"/></g>
<g><path style="opacity:1" fill="#bbbfce" d="M 481.5,204.5 C 482.568,203.566 483.901,203.232 485.5,203.5C 485.5,210.167 485.5,216.833 485.5,223.5C 483.901,223.768 482.568,223.434 481.5,222.5C 482.5,222.5 483.5,222.5 484.5,222.5C 484.5,216.5 484.5,210.5 484.5,204.5C 483.5,204.5 482.5,204.5 481.5,204.5 Z"/></g>
<g><path style="opacity:1" fill="#eff0f4" d="M 493.5,203.5 C 504.66,202.502 508.827,207.502 506,218.5C 503.024,222.939 498.857,224.439 493.5,223C 486.865,216.473 486.865,209.973 493.5,203.5 Z"/></g>
<g><path style="opacity:1" fill="#fefffe" d="M 510.5,204.5 C 511.5,204.5 512.5,204.5 513.5,204.5C 513.5,209.5 513.5,214.5 513.5,219.5C 516.358,220.166 519.358,220.833 522.5,221.5C 518.555,222.491 514.555,222.824 510.5,222.5C 510.5,216.5 510.5,210.5 510.5,204.5 Z"/></g>
<g><path style="opacity:1" fill="#edeef2" d="M 530.5,203.5 C 541.856,203.362 545.689,208.695 542,219.5C 538.146,223.671 533.646,224.504 528.5,222C 522.795,215.077 523.462,208.911 530.5,203.5 Z"/></g>
<g><path style="opacity:1" fill="#eaebf0" d="M 551.5,203.5 C 556.691,202.467 560.691,204.134 563.5,208.5C 562.667,208.833 561.833,209.167 561,209.5C 553.108,205.405 549.442,207.738 550,216.5C 552.96,219.971 556.126,220.304 559.5,217.5C 557.955,216.548 556.288,216.215 554.5,216.5C 554.5,215.167 554.5,213.833 554.5,212.5C 557.5,212.5 560.5,212.5 563.5,212.5C 563.981,222.779 559.314,225.945 549.5,222C 543.721,215.067 544.388,208.901 551.5,203.5 Z"/></g>
<g><path style="opacity:1" fill="#fcfcfc" d="M 566.5,204.5 C 567.833,204.5 569.167,204.5 570.5,204.5C 570.5,210.833 570.5,217.167 570.5,223.5C 569.167,223.5 567.833,223.5 566.5,223.5C 566.5,217.167 566.5,210.833 566.5,204.5 Z"/></g>
<g><path style="opacity:1" fill="#586386" d="M 566.5,204.5 C 567.919,203.549 569.585,203.216 571.5,203.5C 571.824,210.354 571.491,217.021 570.5,223.5C 570.5,217.167 570.5,210.833 570.5,204.5C 569.167,204.5 567.833,204.5 566.5,204.5 Z"/></g>
<g><path style="opacity:1" fill="#8890a9" d="M 588.5,204.5 C 583.833,204.5 579.167,204.5 574.5,204.5C 574.5,210.833 574.5,217.167 574.5,223.5C 573.509,217.021 573.176,210.354 573.5,203.5C 578.695,203.179 583.695,203.513 588.5,204.5 Z"/></g>
<g><path style="opacity:1" fill="#f3f3f6" d="M 588.5,204.5 C 588.5,205.5 588.5,206.5 588.5,207.5C 585.167,207.5 581.833,207.5 578.5,207.5C 578.5,208.833 578.5,210.167 578.5,211.5C 581.5,211.5 584.5,211.5 587.5,211.5C 587.5,212.5 587.5,213.5 587.5,214.5C 584.167,214.5 580.833,214.5 577.5,214.5C 577.216,216.415 577.549,218.081 578.5,219.5C 581.833,219.5 585.167,219.5 588.5,219.5C 588.5,220.833 588.5,222.167 588.5,223.5C 583.833,223.5 579.167,223.5 574.5,223.5C 574.5,217.167 574.5,210.833 574.5,204.5C 579.167,204.5 583.833,204.5 588.5,204.5 Z"/></g>
<g><path style="opacity:1" fill="#e9eaef" d="M 594.5,203.5 C 597.649,203.211 600.649,203.711 603.5,205C 605.037,206.11 605.703,207.61 605.5,209.5C 602.77,209.527 600.27,208.86 598,207.5C 597.167,207.833 596.333,208.167 595.5,208.5C 598.171,210.459 601.171,211.959 604.5,213C 607.476,217.094 606.809,220.427 602.5,223C 595.941,225.217 591.941,223.051 590.5,216.5C 593.81,218.262 597.476,219.262 601.5,219.5C 601.67,218.178 601.337,217.011 600.5,216C 591.6,214.688 589.6,210.521 594.5,203.5 Z"/></g>
<g><path style="opacity:1" fill="#202e5c" d="M 494.5,207.5 C 502.003,206.853 504.503,210.186 502,217.5C 496.348,221.199 493.182,219.699 492.5,213C 492.758,210.991 493.425,209.157 494.5,207.5 Z"/></g>
<g><path style="opacity:1" fill="#222f5e" d="M 531.5,207.5 C 539.574,207.953 541.574,211.787 537.5,219C 529.992,220.141 527.492,216.974 530,209.5C 530.717,208.956 531.217,208.289 531.5,207.5 Z"/></g>
<g><path style="opacity:1" fill="#8b93ab" d="M 475.5,213.5 C 474.833,216.833 474.167,220.167 473.5,223.5C 473.334,219.486 473.501,215.486 474,211.5C 474.717,212.044 475.217,212.711 475.5,213.5 Z"/></g>
<g><path style="opacity:1" fill="#626c8d" d="M 587.5,214.5 C 584.713,215.477 581.713,215.81 578.5,215.5C 578.5,216.833 578.5,218.167 578.5,219.5C 577.549,218.081 577.216,216.415 577.5,214.5C 580.833,214.5 584.167,214.5 587.5,214.5 Z"/></g>
<g><path style="opacity:1" fill="#646e8f" d="M 455.5,215.5 C 457.607,214.532 459.941,214.198 462.5,214.5C 462.5,217.5 462.5,220.5 462.5,223.5C 461.527,221.052 461.194,218.385 461.5,215.5C 459.5,215.5 457.5,215.5 455.5,215.5 Z"/></g>
<g><path style="opacity:1" fill="#bfc4d1" d="M 418.5,219.5 C 422.167,219.5 425.833,219.5 429.5,219.5C 429.5,220.833 429.5,222.167 429.5,223.5C 424.305,223.821 419.305,223.487 414.5,222.5C 419.214,222.827 423.88,222.493 428.5,221.5C 425.023,220.833 421.689,220.166 418.5,219.5 Z"/></g>
<g><path style="opacity:1" fill="#c2c6d2" d="M 510.5,204.5 C 510.5,210.5 510.5,216.5 510.5,222.5C 514.555,222.824 518.555,222.491 522.5,221.5C 519.358,220.833 516.358,220.166 513.5,219.5C 516.833,219.5 520.167,219.5 523.5,219.5C 523.5,220.833 523.5,222.167 523.5,223.5C 518.833,223.5 514.167,223.5 509.5,223.5C 509.177,216.978 509.51,210.645 510.5,204.5 Z"/></g>
<g><path style="opacity:1" fill="#737476" d="M 342.5,302.5 C 344.833,302.5 347.167,302.5 349.5,302.5C 348.342,307.119 347.842,311.785 348,316.5C 350.513,312.788 354.013,311.622 358.5,313C 359.333,313.833 360.167,314.667 361,315.5C 361.102,321.825 360.935,328.158 360.5,334.5C 358.5,334.5 356.5,334.5 354.5,334.5C 355.075,328.833 355.242,323.167 355,317.5C 351.242,316.848 348.575,318.515 347,322.5C 346.501,326.486 346.334,330.486 346.5,334.5C 344.5,334.5 342.5,334.5 340.5,334.5C 341.534,323.858 342.201,313.192 342.5,302.5 Z"/></g>
<g><path style="opacity:1" fill="#737476" d="M 416.5,302.5 C 418.833,302.5 421.167,302.5 423.5,302.5C 421.621,313.078 420.621,323.745 420.5,334.5C 418.5,334.5 416.5,334.5 414.5,334.5C 415.908,323.89 416.575,313.223 416.5,302.5 Z"/></g>
<g><path style="opacity:1" fill="#797a7c" d="M 210.5,302.5 C 215.255,302.156 216.588,304.156 214.5,308.5C 211.439,311.531 209.439,311.031 208.5,307C 208.519,305.167 209.185,303.667 210.5,302.5 Z"/></g>
<g><path style="opacity:1" fill="#7a7b7d" d="M 595.5,302.5 C 600.068,302.083 601.568,304.083 600,308.5C 594.934,311.894 592.934,310.56 594,304.5C 594.717,303.956 595.217,303.289 595.5,302.5 Z"/></g>
<g><path style="opacity:1" fill="#b5b5b6" d="M 276.5,305.5 C 283.648,304.508 290.981,304.175 298.5,304.5C 298.784,306.415 298.451,308.081 297.5,309.5C 297.5,308.167 297.5,306.833 297.5,305.5C 290.5,305.5 283.5,305.5 276.5,305.5 Z"/></g>
<g><path style="opacity:1" fill="#737476" d="M 514.5,304.5 C 518.5,304.5 522.5,304.5 526.5,304.5C 526.753,306.827 526.086,308.827 524.5,310.5C 521.562,309.425 518.562,309.259 515.5,310C 514.643,310.689 513.977,311.522 513.5,312.5C 517.114,315.764 520.948,318.764 525,321.5C 526.842,331 522.842,335.667 513,335.5C 511.167,335.333 509.333,335.167 507.5,335C 504.826,332.872 504.993,331.039 508,329.5C 511.121,330.536 514.287,330.703 517.5,330C 519.698,328.33 520.032,326.33 518.5,324C 510.269,321.797 507.103,316.63 509,308.5C 510.812,307.023 512.645,305.69 514.5,304.5 Z"/></g>
<g><path style="opacity:1" fill="#727374" d="M 23.5,305.5 C 29.5,305.5 35.5,305.5 41.5,305.5C 41.5,306.833 41.5,308.167 41.5,309.5C 37.5,309.5 33.5,309.5 29.5,309.5C 29.5,311.833 29.5,314.167 29.5,316.5C 32.5,316.5 35.5,316.5 38.5,316.5C 38.5792,317.93 38.2458,319.264 37.5,320.5C 34.2317,321.487 30.8984,321.82 27.5,321.5C 27.5,324.167 27.5,326.833 27.5,329.5C 31.5,329.5 35.5,329.5 39.5,329.5C 39.5,331.167 39.5,332.833 39.5,334.5C 33.1318,334.83 26.7985,334.496 20.5,333.5C 22.5231,324.291 23.5231,314.958 23.5,305.5 Z"/></g>
<g><path style="opacity:1" fill="#707173" d="M 276.5,305.5 C 283.5,305.5 290.5,305.5 297.5,305.5C 297.5,306.833 297.5,308.167 297.5,309.5C 294.833,309.5 292.167,309.5 289.5,309.5C 288.586,317.812 287.919,326.146 287.5,334.5C 285.5,334.5 283.5,334.5 281.5,334.5C 282.276,326.176 282.943,317.843 283.5,309.5C 280.833,309.5 278.167,309.5 275.5,309.5C 275.232,307.901 275.566,306.568 276.5,305.5 Z"/></g>
<g><path style="opacity:1" fill="#747577" d="M 259.5,309.5 C 261.167,309.5 262.833,309.5 264.5,309.5C 264.647,312.943 262.98,314.943 259.5,315.5C 261.243,319.221 260.576,322.388 257.5,325C 253.974,326.337 250.308,326.837 246.5,326.5C 246.5,327.833 246.5,329.167 246.5,330.5C 250.902,330.228 255.235,330.561 259.5,331.5C 262.534,336.477 261.534,340.644 256.5,344C 251.693,346.829 246.693,347.163 241.5,345C 237.411,340.902 237.744,337.069 242.5,333.5C 241.205,330.561 241.872,328.061 244.5,326C 240.042,320.841 240.708,316.508 246.5,313C 250.225,312.24 253.892,312.407 257.5,313.5C 258.362,312.234 259.029,310.901 259.5,309.5 Z"/></g>
<g><path style="opacity:1" fill="#737476" d="M 469.5,309.5 C 470.833,309.5 472.167,309.5 473.5,309.5C 473.5,311.167 473.5,312.833 473.5,314.5C 472.167,314.5 470.833,314.5 469.5,314.5C 470.232,324.497 465.565,328.497 455.5,326.5C 455.5,327.833 455.5,329.167 455.5,330.5C 460.297,330.121 464.964,330.621 469.5,332C 471.846,338.31 469.846,342.643 463.5,345C 459.138,346.923 454.805,346.923 450.5,345C 448.522,342.503 448.022,339.669 449,336.5C 449.903,335.299 451.069,334.465 452.5,334C 452.926,328.093 452.926,321.926 452.5,315.5C 456.71,312.342 461.377,311.675 466.5,313.5C 467.524,312.148 468.524,310.815 469.5,309.5 Z"/></g>
<g><path style="opacity:1" fill="#717274" d="M 45.5,312.5 C 48.5468,311.855 50.7135,312.855 52,315.5C 56.2481,311.524 60.4148,311.524 64.5,315.5C 68.4388,311.986 72.6055,311.653 77,314.5C 77.4735,321.18 77.3069,327.846 76.5,334.5C 74.5,334.5 72.5,334.5 70.5,334.5C 70.7625,329.947 71.4292,325.447 72.5,321C 72.8256,318.729 71.9922,317.229 70,316.5C 67.7429,317.09 66.0763,318.423 65,320.5C 63.6908,325.066 63.1908,329.733 63.5,334.5C 61.5,334.5 59.5,334.5 57.5,334.5C 58.0751,328.833 58.2417,323.167 58,317.5C 57.4387,316.978 56.772,316.645 56,316.5C 53.6794,317.487 52.0128,319.154 51,321.5C 50.2646,325.813 49.7646,330.147 49.5,334.5C 47.4727,334.662 45.4727,334.495 43.5,334C 45.0549,326.963 45.7216,319.796 45.5,312.5 Z"/></g>
<g><path style="opacity:1" fill="#737476" d="M 82.5,312.5 C 84.5,312.5 86.5,312.5 88.5,312.5C 88.3433,313.873 88.51,315.207 89,316.5C 89.5,314.667 90.6667,313.5 92.5,313C 99.8414,311.181 103.508,314.014 103.5,321.5C 103.486,329.344 99.6532,334.01 92,335.5C 89.9658,335.646 88.2991,334.98 87,333.5C 86.5014,337.152 86.3347,340.818 86.5,344.5C 84.5,344.5 82.5,344.5 80.5,344.5C 81.8272,333.88 82.4939,323.213 82.5,312.5 Z"/></g>
<g><path style="opacity:1" fill="#727375" d="M 113.5,312.5 C 128.012,312.178 131.845,318.511 125,331.5C 118.146,337.376 112.146,336.709 107,329.5C 104.788,322.015 106.954,316.348 113.5,312.5 Z"/></g>
<g><path style="opacity:1" fill="#747577" d="M 173.5,312.5 C 176.85,312.335 180.183,312.502 183.5,313C 187.849,317.931 186.849,321.598 180.5,324C 177.518,324.498 174.518,324.665 171.5,324.5C 171.944,330.153 174.944,331.986 180.5,330C 184.038,328.028 185.038,329.028 183.5,333C 169.995,338.502 164.495,334.002 167,319.5C 168.694,316.642 170.861,314.309 173.5,312.5 Z"/></g>
<g><path style="opacity:1" fill="#737476" d="M 190.5,312.5 C 192.766,312.141 194.599,312.808 196,314.5C 198.64,312.476 201.473,312.143 204.5,313.5C 203.754,314.736 203.421,316.07 203.5,317.5C 200.635,317.055 198.135,317.722 196,319.5C 194.84,324.434 194.34,329.434 194.5,334.5C 192.5,334.5 190.5,334.5 188.5,334.5C 188.948,327.098 189.615,319.764 190.5,312.5 Z"/></g>
<g><path style="opacity:1" fill="#757577" d="M 207.5,312.5 C 209.5,312.5 211.5,312.5 213.5,312.5C 212.907,319.841 212.24,327.174 211.5,334.5C 209.5,334.5 207.5,334.5 205.5,334.5C 206.822,327.233 207.489,319.899 207.5,312.5 Z"/></g>
<g><path style="opacity:1" fill="#747577" d="M 218.5,312.5 C 220.167,312.5 221.833,312.5 223.5,312.5C 223.367,317.272 224.7,317.438 227.5,313C 235.264,310.596 238.597,313.43 237.5,321.5C 237.071,325.831 236.738,330.165 236.5,334.5C 234.5,334.5 232.5,334.5 230.5,334.5C 231.075,328.833 231.242,323.167 231,317.5C 227.617,316.481 225.283,317.815 224,321.5C 223.265,325.813 222.765,330.147 222.5,334.5C 220.5,334.5 218.5,334.5 216.5,334.5C 217.003,327.104 217.669,319.771 218.5,312.5 Z"/></g>
<g><path style="opacity:1" fill="#747577" d="M 305.5,312.5 C 308.85,312.335 312.183,312.502 315.5,313C 319.057,315.581 319.39,318.581 316.5,322C 312.747,323.989 308.747,324.822 304.5,324.5C 304.178,326.722 304.845,328.556 306.5,330C 309.656,330.603 312.656,330.103 315.5,328.5C 316.747,330.006 316.747,331.506 315.5,333C 302.404,338.178 296.904,333.678 299,319.5C 300.694,316.642 302.861,314.309 305.5,312.5 Z"/></g>
<g><path style="opacity:1" fill="#747577" d="M 328.5,312.5 C 331.5,312.5 334.5,312.5 337.5,312.5C 337.5,314.167 337.5,315.833 337.5,317.5C 327.255,316.57 324.255,320.736 328.5,330C 331.192,330.43 333.859,330.263 336.5,329.5C 335.51,335.098 332.176,336.932 326.5,335C 321.15,331.629 319.317,326.796 321,320.5C 322.387,316.678 324.887,314.011 328.5,312.5 Z"/></g>
<g><path style="opacity:1" fill="#717274" d="M 366.5,312.5 C 368.167,312.5 369.833,312.5 371.5,312.5C 371.367,317.272 372.7,317.438 375.5,313C 378.993,311.996 382.159,312.496 385,314.5C 385.288,321.169 385.122,327.836 384.5,334.5C 382.5,334.5 380.5,334.5 378.5,334.5C 379.387,328.855 379.554,323.188 379,317.5C 378.439,316.978 377.772,316.645 377,316.5C 374.679,317.487 373.013,319.154 372,321.5C 371.265,325.813 370.765,330.147 370.5,334.5C 368.833,334.5 367.167,334.5 365.5,334.5C 366.038,327.178 366.371,319.845 366.5,312.5 Z"/></g>
<g><path style="opacity:1" fill="#727375" d="M 396.5,312.5 C 408.827,311.323 413.327,316.656 410,328.5C 406.064,335.052 400.564,336.886 393.5,334C 389.809,329.865 388.642,325.031 390,319.5C 391.694,316.642 393.861,314.309 396.5,312.5 Z"/></g>
<g><path style="opacity:1" fill="#747577" d="M 435.5,311.5 C 447.606,313.043 450.773,319.377 445,330.5C 439.897,336.263 434.23,336.93 428,332.5C 423.178,322.821 425.678,315.821 435.5,311.5 Z"/></g>
<g><path style="opacity:1" fill="#747577" d="M 536.5,312.5 C 539.85,312.335 543.183,312.502 546.5,313C 550.862,317.881 549.862,321.548 543.5,324C 540.854,324.497 538.187,324.664 535.5,324.5C 535.178,326.722 535.845,328.556 537.5,330C 540.656,330.603 543.656,330.103 546.5,328.5C 547.747,330.006 547.747,331.506 546.5,333C 533.66,337.841 528.16,333.341 530,319.5C 531.694,316.642 533.861,314.309 536.5,312.5 Z"/></g>
<g><path style="opacity:1" fill="#707173" d="M 553.5,312.5 C 555.167,312.5 556.833,312.5 558.5,312.5C 558.443,316.133 559.443,316.3 561.5,313C 563.473,312.505 565.473,312.338 567.5,312.5C 567.579,313.93 567.246,315.264 566.5,316.5C 564.535,317.292 562.535,317.959 560.5,318.5C 559.808,319.025 559.308,319.692 559,320.5C 558.565,325.184 558.065,329.851 557.5,334.5C 555.833,334.5 554.167,334.5 552.5,334.5C 552.944,327.173 553.277,319.84 553.5,312.5 Z"/></g>
<g><path style="opacity:1" fill="#747577" d="M 592.5,312.5 C 594.5,312.5 596.5,312.5 598.5,312.5C 598,319.494 597.5,326.494 597,333.5C 595.301,334.406 593.467,334.739 591.5,334.5C 591.944,327.173 592.277,319.84 592.5,312.5 Z"/></g>
<g><path style="opacity:1" fill="#737476" d="M 609.5,312.5 C 612.85,312.335 616.183,312.502 619.5,313C 618.91,314.509 618.244,316.009 617.5,317.5C 609.912,316.257 606.746,319.591 608,327.5C 608.374,328.416 608.874,329.25 609.5,330C 612.534,330.66 615.367,330.16 618,328.5C 618.344,331.46 617.177,333.627 614.5,335C 607.756,336.714 603.59,334.214 602,327.5C 601.333,325.167 601.333,322.833 602,320.5C 604.028,317.308 606.528,314.641 609.5,312.5 Z"/></g>
<g><path style="opacity:1" fill="#757677" d="M 628.5,312.5 C 631.85,312.335 635.183,312.502 638.5,313C 642.057,315.581 642.39,318.581 639.5,322C 635.747,323.989 631.747,324.822 627.5,324.5C 627.178,326.722 627.845,328.556 629.5,330C 632.656,330.603 635.656,330.103 638.5,328.5C 639.747,330.006 639.747,331.506 638.5,333C 625.404,338.178 619.904,333.678 622,319.5C 623.694,316.642 625.861,314.309 628.5,312.5 Z"/></g>
<g><path style="opacity:1" fill="#747577" d="M 648.5,312.5 C 652.226,312.177 655.893,312.511 659.5,313.5C 659.023,314.931 658.357,316.264 657.5,317.5C 654.466,315.898 651.799,316.231 649.5,318.5C 652.208,320.611 655.041,322.611 658,324.5C 659.298,332.207 655.965,335.874 648,335.5C 643.742,336.407 641.909,334.741 642.5,330.5C 655.965,331.253 656.798,328.586 645,322.5C 643.581,318.082 644.748,314.749 648.5,312.5 Z"/></g>
<g><path style="opacity:1" fill="#757678" d="M 131.5,312.5 C 133.604,312.201 135.604,312.534 137.5,313.5C 138.471,318.126 139.304,322.792 140,327.5C 141.833,323.167 143.667,318.833 145.5,314.5C 147.396,313.534 149.396,313.201 151.5,313.5C 151.853,317.913 152.686,322.246 154,326.5C 155.944,322.277 157.611,317.944 159,313.5C 160.699,312.594 162.533,312.261 164.5,312.5C 162.345,319.816 159.345,326.816 155.5,333.5C 153.604,334.466 151.604,334.799 149.5,334.5C 149.628,329.594 148.794,324.927 147,320.5C 144.863,325.084 143.029,329.75 141.5,334.5C 139.5,334.5 137.5,334.5 135.5,334.5C 134.376,327.128 133.043,319.795 131.5,312.5 Z"/></g>
<g><path style="opacity:1" fill="#737476" d="M 474.5,312.5 C 476.833,312.5 479.167,312.5 481.5,312.5C 482.268,332.009 484.768,332.342 489,313.5C 490.699,312.594 492.533,312.261 494.5,312.5C 494.477,314.927 493.977,317.26 493,319.5C 488.806,326.554 485.139,333.888 482,341.5C 479.413,343.196 476.579,344.196 473.5,344.5C 473.5,342.833 473.5,341.167 473.5,339.5C 477.918,339.583 480.251,337.416 480.5,333C 478.644,326.122 476.644,319.288 474.5,312.5 Z"/></g>
<g><path style="opacity:1" fill="#737476" d="M 569.5,312.5 C 571.5,312.5 573.5,312.5 575.5,312.5C 576.169,317.514 577.003,322.514 578,327.5C 580.41,322.686 582.244,317.686 583.5,312.5C 585.604,312.201 587.604,312.534 589.5,313.5C 586.694,320.446 583.361,327.112 579.5,333.5C 577.604,334.466 575.604,334.799 573.5,334.5C 572.16,327.145 570.826,319.812 569.5,312.5 Z"/></g>
<g><path style="opacity:1" fill="#f7f7f7" d="M 115.5,316.5 C 120.282,315.614 122.616,317.614 122.5,322.5C 122.227,326.729 120.227,329.729 116.5,331.5C 113.218,330.105 111.884,327.605 112.5,324C 112.11,320.876 113.11,318.376 115.5,316.5 Z"/></g>
<g><path style="opacity:1" fill="#f3f3f3" d="M 174.5,316.5 C 176.5,316.5 178.5,316.5 180.5,316.5C 180.67,317.822 180.337,318.989 179.5,320C 177.26,320.977 174.927,321.477 172.5,321.5C 172.392,319.486 173.058,317.82 174.5,316.5 Z"/></g>
<g><path style="opacity:1" fill="#f3f3f3" d="M 249.5,315.5 C 251.144,315.286 252.644,315.62 254,316.5C 255.848,322.653 253.848,324.653 248,322.5C 247.167,319.829 247.667,317.496 249.5,315.5 Z"/></g>
<g><path style="opacity:1" fill="#f2f2f3" d="M 306.5,316.5 C 308.5,316.5 310.5,316.5 312.5,316.5C 312.67,317.822 312.337,318.989 311.5,320C 309.26,320.977 306.927,321.477 304.5,321.5C 304.392,319.486 305.058,317.82 306.5,316.5 Z"/></g>
<g><path style="opacity:1" fill="#f7f7f7" d="M 398.5,316.5 C 403.282,315.614 405.616,317.614 405.5,322.5C 405.675,327.008 403.675,330.008 399.5,331.5C 396.463,330.132 395.13,327.798 395.5,324.5C 395.4,321.376 396.4,318.71 398.5,316.5 Z"/></g>
<g><path style="opacity:1" fill="#f9f9f9" d="M 434.5,316.5 C 437.044,316.104 439.211,316.771 441,318.5C 442.151,322.829 441.318,326.662 438.5,330C 435.472,331.14 433.305,330.306 432,327.5C 430.946,323.345 431.78,319.678 434.5,316.5 Z"/></g>
<g><path style="opacity:1" fill="#f3f3f3" d="M 459.5,315.5 C 464.668,316.339 465.668,318.839 462.5,323C 455.934,322.805 454.934,320.305 459.5,315.5 Z"/></g>
<g><path style="opacity:1" fill="#f4f5f5" d="M 538.5,316.5 C 540.977,316.051 542.977,316.717 544.5,318.5C 542.058,319.994 539.391,320.994 536.5,321.5C 536.167,321.167 535.833,320.833 535.5,320.5C 536.172,318.84 537.172,317.507 538.5,316.5 Z"/></g>
<g><path style="opacity:1" fill="#f6f6f7" d="M 629.5,316.5 C 631.5,316.5 633.5,316.5 635.5,316.5C 635.67,317.822 635.337,318.989 634.5,320C 632.444,320.311 630.444,320.811 628.5,321.5C 627.799,319.808 628.133,318.142 629.5,316.5 Z"/></g>
<g><path style="opacity:1" fill="#f7f7f7" d="M 92.5,316.5 C 94.3904,316.297 95.8904,316.963 97,318.5C 99.1465,327.046 95.9798,331.046 87.5,330.5C 86.9266,324.99 88.5932,320.323 92.5,316.5 Z"/></g>
<g><path style="opacity:1" fill="#fcfcfc" d="M 245.5,335.5 C 248.833,335.5 252.167,335.5 255.5,335.5C 254.57,341.72 251.07,343.72 245,341.5C 244.322,339.402 244.489,337.402 245.5,335.5 Z"/></g>
<g><path style="opacity:1" fill="#fafafa" d="M 454.5,335.5 C 457.833,335.5 461.167,335.5 464.5,335.5C 465.305,340.525 463.139,342.858 458,342.5C 453.517,342.061 452.35,339.727 454.5,335.5 Z"/></g>
</svg>
