<?xml version="1.0" encoding="UTF-8"?>
<svg id="Layer_2" data-name="Layer 2" xmlns="http://www.w3.org/2000/svg" xmlns:xlink="http://www.w3.org/1999/xlink" viewBox="0 0 720.04 123.78">
  <defs>
    <style>
      .cls-1 {
        fill: url(#linear-gradient);
      }

      .cls-2 {
        fill: #2b2523;
      }
    </style>
    <linearGradient id="linear-gradient" x1="0" y1="61.89" x2="116.85" y2="61.89" gradientUnits="userSpaceOnUse">
      <stop offset=".4" stop-color="#792182"/>
      <stop offset="1" stop-color="#e60f76"/>
    </linearGradient>
  </defs>
  <g id="Layer_1-2" data-name="Layer 1">
    <g>
      <path class="cls-2" d="m154.43,51.51h-15.45v-12.32h43.86v12.32h-15.45v52.05h-12.97v-52.05Z"/>
      <path class="cls-2" d="m177.33,81.76c0-14.25,7.17-23.27,19.49-23.27s19.49,10.12,18.02,27.95h-24.74c1.01,6.44,4.87,9.01,11.22,9.01,3.68,0,7.17-.46,10.85-1.93v9.2c-3.59,1.66-7.63,2.3-12.51,2.3-14.44,0-22.35-8.83-22.35-23.26Zm26.21-3.49c0-6.25-1.84-9.66-6.53-9.66s-6.9,3.68-7.36,9.66h13.89Z"/>
      <path class="cls-2" d="m233.12,103.55h-12.32V36.43h12.32v67.13Z"/>
      <path class="cls-2" d="m238.61,81.48c0-14.25,7.17-23.27,19.5-23.27s19.49,10.12,18.02,27.95h-24.74c1.01,6.44,4.87,9.01,11.22,9.01,3.68,0,7.17-.46,10.85-1.93v9.2c-3.59,1.66-7.63,2.3-12.51,2.3-14.44,0-22.35-8.83-22.35-23.26Zm26.21-3.49c0-6.25-1.84-9.66-6.53-9.66s-6.9,3.68-7.36,9.66h13.89Z"/>
      <path class="cls-2" d="m304.31,104.75c-4.97,0-8.18-2.12-10.3-4.51v23.54h-12.32V59.41h11.03v4.51c2.02-2.85,5.61-5.7,11.31-5.7,11.86,0,16.18,10.85,16.18,23.27,0,13.61-4.97,23.26-15.91,23.26Zm-10.3-15.26c1.47,2.76,3.77,4.51,6.71,4.51,5.24,0,7.26-4.51,7.26-12.51s-2.02-12.51-7.26-12.51c-2.94,0-5.24,1.75-6.71,4.51v16Z"/>
      <path class="cls-2" d="m323.94,81.48c0-14.25,7.17-23.27,19.5-23.27s19.49,10.12,18.02,27.95h-24.74c1.01,6.44,4.87,9.01,11.22,9.01,3.68,0,7.17-.46,10.85-1.93v9.2c-3.59,1.66-7.63,2.3-12.51,2.3-14.44,0-22.35-8.83-22.35-23.26Zm26.21-3.49c0-6.25-1.84-9.66-6.53-9.66s-6.9,3.68-7.36,9.66h13.89Z"/>
      <path class="cls-2" d="m366.4,59.41h11.03v6.71c2.67-5.61,7.63-8.18,14.25-7.63v12.51c-5.89-.74-10.57,1.38-12.97,7.54v25.01h-12.32v-44.14Z"/>
      <path class="cls-2" d="m401.93,70.08h-5.79v-10.67h5.79v-5.79c0-11.49,7.26-15.63,15.17-15.63,3.22,0,5.52.46,8,1.47v10.11c-1.47-.64-3.22-.92-4.97-.92-3.49,0-5.89,1.65-5.89,5.43v5.33h8.83v10.67h-8.83v33.47h-12.32v-33.47Z"/>
      <path class="cls-2" d="m464.4,81.48c0,14.53-7.08,23.26-19.77,23.26s-19.86-8.74-19.86-23.26,7.08-23.27,19.86-23.27,19.77,8.64,19.77,23.27Zm-27.22,0c0,8.09,2.11,12.51,7.45,12.51s7.36-4.41,7.36-12.51-2.11-12.6-7.36-12.6-7.45,4.51-7.45,12.6Z"/>
      <path class="cls-2" d="m468.83,59.41h11.03v6.71c2.67-5.61,7.63-8.18,14.25-7.63v12.51c-5.89-.74-10.57,1.38-12.97,7.54v25.01h-12.32v-44.14Z"/>
      <path class="cls-2" d="m556.45,72.38v31.17h-12.14v-28.6c0-3.59-1.65-5.33-4.6-5.33-2.58,0-4.6,1.47-6.16,3.95v29.98h-12.05v-28.6c0-3.59-1.75-5.33-4.6-5.33-2.48,0-4.6,1.47-6.16,4.14v29.79h-12.14v-44.14h11.03v4.14c2.57-3.31,6.35-5.33,11.13-5.33s8.37,2.02,10.48,5.33c3.22-3.77,7.17-5.33,11.95-5.33,8.92,0,13.24,6.25,13.24,14.16Z"/>
      <path class="cls-2" d="m601.95,94.73v8.64c-1.84.55-3.68.83-5.89.83-3.4,0-6.53-1.01-8.37-3.4-3.31,2.67-7.26,3.95-11.86,3.95-7.54,0-14.07-4.41-14.07-13.7s6.9-14.16,16.74-14.16c2.39,0,4.41.28,7.08.83v-2.39c0-3.59-1.65-6.71-7.72-6.71-4.97,0-9.66,1.2-13.33,2.76v-10.57c4.05-1.47,9.47-2.58,14.53-2.58,12.23,0,18.57,5.43,18.57,18.02v15.72c0,2.21,1.1,2.94,2.85,2.94.46,0,1.01-.09,1.47-.18Zm-16.37-.92v-8.46c-1.56-.37-2.94-.55-4.41-.55-4.51,0-7.54,1.47-7.54,5.89,0,3.95,2.39,5.7,5.33,5.7,2.76,0,4.69-.83,6.62-2.57Z"/>
      <path class="cls-2" d="m606.5,59.41h11.03v4.14c2.48-2.94,6.16-5.33,11.95-5.33,6.99,0,13.33,4.87,13.33,14.07v31.26h-12.32v-28.6c0-3.77-1.84-5.33-5.06-5.33s-5.43,2.11-6.62,4.41v29.52h-12.32v-44.14Z"/>
      <path class="cls-2" d="m647.97,81.85c0-15.17,8.83-23.63,20.97-23.63,3.77,0,6.62.55,9.66,2.02v10.39c-2.3-1.2-4.69-1.84-7.72-1.84-6.44,0-10.48,4.69-10.48,12.69s3.59,12.51,9.93,12.51c3.77,0,6.44-.83,8.74-1.84v10.67c-2.76,1.29-6.16,1.93-10.67,1.93-11.86,0-20.41-8.18-20.41-22.9Z"/>
      <path class="cls-2" d="m682.33,81.48c0-14.25,7.17-23.27,19.49-23.27s19.49,10.12,18.02,27.95h-24.74c1.01,6.44,4.87,9.01,11.22,9.01,3.68,0,7.17-.46,10.85-1.93v9.2c-3.59,1.66-7.63,2.3-12.51,2.3-14.44,0-22.35-8.83-22.35-23.26Zm26.21-3.49c0-6.25-1.84-9.66-6.53-9.66s-6.9,3.68-7.36,9.66h13.89Z"/>
      <path class="cls-1" d="m75.63,0H4.33C1.94,0,0,1.94,0,4.33v21.25c0,1.77.34,2.75,1.18,3.59,6.1,6.1,18.54,18.54,24.64,24.64.39.39.96.15.96-.35v-25.15c0-.53-.43-.96-.96-.96H6.33c-1.27,0-2.3-1.03-2.3-2.3V6.33c0-1.27,1.03-2.3,2.3-2.3h65.35c1.27,0,2.3,1.03,2.3,2.3v18.73c0,1.27-1.03,2.29-2.29,2.29h-19.48c-.53,0-.97.43-.97.97v72.94c0,1.27-1.03,2.29-2.29,2.29h-19.38c-.51,0-.85.63-.49.99,4.24,4.24,12.78,12.78,17.11,17.11,1.16,1.16,2.68,2.14,4.62,2.14h18.61c1.76,0,3.19-1.43,3.19-3.19v-43.45c0-.53.43-.97.97-.97h2.04c20.91,0,41.22-12.76,41.22-38.24C116.85,15.26,101.21,0,75.63,0Z"/>
    </g>
  </g>
</svg>