<svg xmlns="http://www.w3.org/2000/svg" xmlns:xlink="http://www.w3.org/1999/xlink" width="246.72" height="68.236" viewBox="0 0 246.72 68.236">
  <defs>
    <clipPath id="clip-path">
      <rect id="Rectangle_339" data-name="Rectangle 339" width="246.72" height="68.236"/>
    </clipPath>
    <clipPath id="clip-path-9">
      <rect id="Rectangle_347" data-name="Rectangle 347" width="246.72" height="42.78" transform="translate(0 12.729)"/>
    </clipPath>
  </defs>
  <g id="HDFC_LOgo_Revised" data-name="HDFC LOgo Revised" transform="translate(2425 1495.118)">
    <g id="Rectangle_348" data-name="Rectangle 348" transform="translate(-2416 -1483)" stroke="#707070" stroke-width="1" opacity="0">
      <rect width="228" height="44" stroke="none"/>
      <rect x="0.5" y="0.5" width="227" height="43" fill="none"/>
    </g>
    <g id="HDFC_Logo" data-name="HDFC Logo" transform="translate(-2425 -1495.118)">
      <rect id="Rectangle_333" data-name="Rectangle 333" width="219.263" height="37.026" transform="translate(13.729 15.606)" fill="#004b8d"/>
      <rect id="Rectangle_334" data-name="Rectangle 334" width="34.654" height="37.026" transform="translate(13.729 15.603)" fill="#ed1c24"/>
      <rect id="Rectangle_335" data-name="Rectangle 335" width="22.526" height="22.446" transform="translate(19.793 22.895)" fill="#fff"/>
      <rect id="Rectangle_336" data-name="Rectangle 336" width="3.465" height="37.026" transform="translate(29.322 15.603)" fill="#fff"/>
      <rect id="Rectangle_337" data-name="Rectangle 337" width="34.654" height="3.451" transform="translate(13.729 32.39)" fill="#fff"/>
      <rect id="Rectangle_338" data-name="Rectangle 338" width="10.398" height="10.361" transform="translate(25.857 28.936)" fill="#004b8d"/>
      <path id="Path_1207" data-name="Path 1207" d="M178.34,91.391V75.07h5.389v5.51h5.048V75.07h5.4V91.391h-5.4V85.06h-5.048v6.331Z" transform="translate(-116.338 -48.725)" fill="#fff"/>
      <g id="Group_1641" data-name="Group 1641">
        <g id="Group_1632" data-name="Group 1632" clip-path="url(#clip-path)">
          <path id="Path_1208" data-name="Path 1208" d="M240.935,79.283h1.449a5.921,5.921,0,0,1,2.3.326,2.152,2.152,0,0,1,.909.739,4.04,4.04,0,0,1,.569,1.335,7.516,7.516,0,0,1,.194,1.73,6.284,6.284,0,0,1-.427,2.486,2.879,2.879,0,0,1-1.224,1.453,4.923,4.923,0,0,1-2.355.44l-1.411.014Zm2.16,12.726a13.236,13.236,0,0,0,3.308-.34,7.423,7.423,0,0,0,2.188-.905,6.286,6.286,0,0,0,1.557-1.5,8.854,8.854,0,0,0,1.2-2.462,10.737,10.737,0,0,0,.482-3.391,9.692,9.692,0,0,0-1.078-4.754,6.255,6.255,0,0,0-3-2.764,11.24,11.24,0,0,0-4.529-.822H235.46V92.009Z" transform="translate(-153.812 -49.039)" fill="#fff"/>
        </g>
        <g id="Group_1633" data-name="Group 1633" clip-path="url(#clip-path)">
          <path id="Path_1209" data-name="Path 1209" d="M290.09,92.009V75.07h13.264v4.178H295.61v2.715H301.8v4.068H295.61v5.978Z" transform="translate(-189.498 -49.039)" fill="#fff"/>
        </g>
        <g id="Group_1634" data-name="Group 1634" clip-path="url(#clip-path)">
          <path id="Path_1210" data-name="Path 1210" d="M350.194,80.695h-5.278A3.094,3.094,0,0,0,344,78.711a2.775,2.775,0,0,0-1.956-.7,2.972,2.972,0,0,0-2.41,1.141,5.868,5.868,0,0,0-.936,3.707,7.069,7.069,0,0,0,.4,2.684,2.925,2.925,0,0,0,1.106,1.38,3.274,3.274,0,0,0,1.782.437,2.784,2.784,0,0,0,2.042-.7,3.165,3.165,0,0,0,.912-2.084h5.382a9.637,9.637,0,0,1-.638,2.649,6.822,6.822,0,0,1-1.533,2.146,7.281,7.281,0,0,1-2.563,1.671,9.3,9.3,0,0,1-3.44.579,10.962,10.962,0,0,1-3.592-.565,7.617,7.617,0,0,1-4.536-4.05,9.708,9.708,0,0,1-.891-4.234,10.243,10.243,0,0,1,.645-3.676,8.1,8.1,0,0,1,1.775-2.861,7.657,7.657,0,0,1,2.507-1.734,9.769,9.769,0,0,1,3.87-.732,10.766,10.766,0,0,1,3.468.544,6.613,6.613,0,0,1,2.656,1.605,7.278,7.278,0,0,1,1.612,2.438,8.1,8.1,0,0,1,.531,2.337" transform="translate(-217.614 -48.189)" fill="#fff"/>
        </g>
        <g id="Group_1635" data-name="Group 1635" clip-path="url(#clip-path)">
          <path id="Path_1211" data-name="Path 1211" d="M406.961,85.637a3.162,3.162,0,0,0,.191,1.12c.381,1.026,1.533,1.241,2.518,1.241.863,0,2.181-.288,2.181-1.55,0-.884-.742-1.124-3.69-1.956-2.708-.763-5.8-1.5-5.8-4.941,0-3.939,3.381-5.631,6.9-5.631,3.714,0,7,1.408,7.143,5.559H411.42a1.3,1.3,0,0,0-.624-1.359,2.758,2.758,0,0,0-1.557-.43c-.718,0-1.893.191-1.893,1.144.1,1.217,2.542,1.481,4.962,2.146s4.817,1.789,4.817,4.917c0,4.439-4.1,5.871-7.91,5.871-1.942,0-7.48-.694-7.525-6.134h5.271Z" transform="translate(-262.4 -48.287)" fill="#fff"/>
        </g>
        <g id="Group_1636" data-name="Group 1636" clip-path="url(#clip-path)">
          <path id="Path_1212" data-name="Path 1212" d="M453.4,75.09h5.153l6.231,17.04H459.32L458.6,89.7h-5.441l-.766,2.434h-5.3Zm4.147,10.951-1.536-5.25h-.049l-1.654,5.25Z" transform="translate(-292.063 -49.052)" fill="#fff"/>
        </g>
        <g id="Group_1637" data-name="Group 1637" clip-path="url(#clip-path)">
          <path id="Path_1213" data-name="Path 1213" d="M502.19,75.09h5.271V87.761h7.577v4.366H502.19Z" transform="translate(-328.05 -49.052)" fill="#fff"/>
        </g>
        <g id="Group_1638" data-name="Group 1638" clip-path="url(#clip-path)">
          <path id="Path_1214" data-name="Path 1214" d="M546.43,75.09H560.6v4.366H551.7v2.122h8.076v4.057H551.7v2.126h9.154v4.366H546.43Z" transform="translate(-356.95 -49.052)" fill="#fff"/>
        </g>
        <g id="Group_1639" data-name="Group 1639" clip-path="url(#clip-path)">
          <path id="Path_1215" data-name="Path 1215" d="M597.951,85.637a3.162,3.162,0,0,0,.191,1.12c.381,1.026,1.533,1.241,2.517,1.241.863,0,2.181-.288,2.181-1.55,0-.884-.742-1.124-3.69-1.956-2.708-.763-5.8-1.5-5.8-4.941,0-3.939,3.377-5.631,6.9-5.631,3.714,0,7,1.408,7.143,5.559H602.41a1.3,1.3,0,0,0-.624-1.359,2.75,2.75,0,0,0-1.557-.43c-.721,0-1.893.191-1.893,1.144.094,1.217,2.542,1.481,4.962,2.146s4.817,1.789,4.817,4.917c0,4.439-4.1,5.871-7.91,5.871-1.942,0-7.476-.694-7.525-6.134h5.271Z" transform="translate(-387.162 -48.287)" fill="#fff"/>
        </g>
        <g id="Group_1640" data-name="Group 1640" clip-path="url(#clip-path-9)">
          <path id="Path_1216" data-name="Path 1216" d="M252.781,76.019H34.558V40.178H252.781V76.019Zm3.468-39.309H31.09V79.49H256.249V36.71Z" transform="translate(-20.309 -23.98)" fill="#fff"/>
        </g>
      </g>
    </g>
  </g>
</svg>
